<svg xmlns="http://www.w3.org/2000/svg" version="1.1" xmlns:xlink="http://www.w3.org/1999/xlink" xmlns:svgjs="http://svgjs.dev/svgjs" width="1440" height="560" preserveAspectRatio="none" viewBox="0 0 1440 560">
    <g mask="url(&quot;#SvgjsMask1294&quot;)" fill="none">
        <path d="M394.8849087637304 273.82240832693435L532.2065336064705 218.3408705161707 476.7249957957069 81.01924567343053 339.4033709529667 136.5007834841942z" fill="rgba(247, 249, 252, 1)" class="triangle-float2"></path>
        <path d="M827.243069481915 358.6596733435505L675.2288733093704 303.331030750841 771.9144268892055 510.673869516095z" fill="rgba(247, 249, 252, 1)" class="triangle-float1"></path>
        <path d="M436.03997014242685 75.73031237969293L294.54117667219765 170.9763761035843 427.3937886325327 238.66816292918296z" fill="rgba(247, 249, 252, 1)" class="triangle-float2"></path>
        <path d="M290.27560497189575 196.5180981959853L418.2681791470326 216.790130422411 438.5402113734583 88.79755624727416 310.54763719832147 68.52552402084844z" fill="rgba(247, 249, 252, 1)" class="triangle-float2"></path>
        <path d="M-0.2717862309312302 41.932398341532114L-57.04001431477054 83.17693028394966 33.21089764077542 147.70700643849983z" fill="rgba(247, 249, 252, 1)" class="triangle-float3"></path>
        <path d="M478.04210363402944 328.3728274094977L554.9851880767644 420.07002471940666 569.7393009439384 251.42974296676277z" fill="rgba(247, 249, 252, 1)" class="triangle-float1"></path>
        <path d="M890.4918857047567 502.29805965203525L957.874921670505 558.8391402785 947.0329663312215 434.9150236862869z" fill="rgba(247, 249, 252, 1)" class="triangle-float1"></path>
        <path d="M83.562,434.46C133.186,437.17,189.284,428.367,213.584,385.015C237.567,342.228,211.299,292.835,186.75,250.37C162.236,207.966,132.533,161.061,83.562,160.104C33.55,159.127,-4.22,201.589,-26.856,246.196C-47.207,286.299,-46.739,333.249,-23.988,372.04C-1.512,410.361,39.202,432.037,83.562,434.46" fill="rgba(247, 249, 252, 1)" class="triangle-float3"></path>
        <path d="M1127.351,619.15C1176.072,618.951,1216.357,586.555,1241.81,545.011C1268.69,501.138,1283.93,447.877,1260.281,402.181C1234.945,353.225,1182.401,320.995,1127.351,323.848C1076.137,326.502,1040.076,369.377,1016.321,414.826C994.604,456.375,988.878,504.759,1011.262,545.952C1034.672,589.033,1078.32,619.35,1127.351,619.15" fill="rgba(247, 249, 252, 1)" class="triangle-float3"></path>
        <path d="M814.1671912392566 236.2347683638615L831.0662012221867 373.866159954645 951.79858283004 219.33575838093134z" fill="rgba(247, 249, 252, 1)" class="triangle-float1"></path>
        <path d="M11.777,117.725C27.42,117.722,38.807,104.202,45.861,90.24C52.161,77.77,52.523,63.169,45.42,51.138C38.435,39.307,25.511,32.864,11.777,32.507C-2.676,32.131,-17.685,36.858,-25.038,49.307C-32.494,61.931,-29.277,77.343,-22.33,90.254C-14.916,104.032,-3.869,117.728,11.777,117.725" fill="rgba(247, 249, 252, 1)" class="triangle-float2"></path>
        <path d="M841.251,226.212C885.808,223.693,924.303,196.958,945.798,157.848C966.481,120.215,966.46,74.784,944.885,37.655C923.415,0.707,883.963,-20.734,841.251,-22.071C795.886,-23.491,750.715,-7.1,725.734,30.794C698.077,72.747,688.436,127.696,714.006,170.953C739.227,213.618,791.768,229.01,841.251,226.212" fill="rgba(247, 249, 252, 1)" class="triangle-float3"></path>
        <path d="M434.685,298.604C482.623,299.694,521.095,264.336,545.701,223.181C571.114,180.677,585.79,129.011,562.076,85.536C537.54,40.553,485.893,17.872,434.685,19.651C386.432,21.327,343.911,50.987,321.756,93.886C301.286,133.522,310.536,179.262,332.083,218.323C354.565,259.077,388.153,297.546,434.685,298.604" fill="rgba(247, 249, 252, 1)" class="triangle-float3"></path>
        <path d="M129.233,494.273C148.863,494.424,168.026,486.005,178.108,469.161C188.453,451.878,188.973,429.681,178.012,412.781C167.837,397.093,147.927,393.383,129.233,393.806C111.448,394.208,93.695,399.904,84.129,414.903C73.837,431.04,72.19,451.777,81.646,468.418C91.206,485.24,109.885,494.124,129.233,494.273" fill="rgba(247, 249, 252, 1)" class="triangle-float3"></path>
        <path d="M1482.45,576.697C1524.861,576.242,1571.71,569.426,1592.647,532.541C1613.412,495.96,1595.022,452.492,1573.453,416.379C1552.604,381.472,1523.008,350.895,1482.45,348.038C1436.793,344.822,1390.044,362.735,1366.155,401.776C1341.319,442.364,1341.735,495.325,1368.08,534.951C1392.162,571.173,1438.956,577.164,1482.45,576.697" fill="rgba(247, 249, 252, 1)" class="triangle-float2"></path>
        <path d="M585.5382772759287 476.97505196978807L513.6479047653665 543.8859316373364 595.2974143507129 570.4154654893729z" fill="rgba(247, 249, 252, 1)" class="triangle-float2"></path>
        <path d="M734.7190955409128 318.2212111024968L845.121509079587 195.60690895909727 612.1047933975133 207.81879756382256z" fill="rgba(247, 249, 252, 1)" class="triangle-float2"></path>
        <path d="M365.211,466.805C406.945,469.99,447.153,443.445,465.135,405.65C481.255,371.768,463.405,334.546,443.17,302.949C424.971,274.532,398.952,250.126,365.211,249.624C330.7,249.11,299.46,270.162,283.125,300.567C267.606,329.451,274.104,362.778,288.621,392.178C305.536,426.433,327.118,463.898,365.211,466.805" fill="rgba(247, 249, 252, 1)" class="triangle-float3"></path>
        <path d="M659.0488404556332 376.4476007908376L663.7171763733772 465.5247565415416 752.7943321240813 460.8564206237976 748.1259962063373 371.7792648730936z" fill="rgba(247, 249, 252, 1)" class="triangle-float1"></path>
        <path d="M498.207391278145-65.1120965810676L484.1103976010416 96.01727845992018 659.3367663191327-51.015102903964205z" fill="rgba(247, 249, 252, 1)" class="triangle-float2"></path>
    </g>
    <defs>
        <mask id="SvgjsMask1294">
            <rect width="1440" height="560" fill="#ffffff"></rect>
        </mask>
        <style>
            @keyframes float1 {
                    0%{transform: translate(0, 0)}
                    50%{transform: translate(-10px, 0)}
                    100%{transform: translate(0, 0)}
                }

                .triangle-float1 {
                    animation: float1 5s infinite;
                }

                @keyframes float2 {
                    0%{transform: translate(0, 0)}
                    50%{transform: translate(-5px, -5px)}
                    100%{transform: translate(0, 0)}
                }

                .triangle-float2 {
                    animation: float2 4s infinite;
                }

                @keyframes float3 {
                    0%{transform: translate(0, 0)}
                    50%{transform: translate(0, -10px)}
                    100%{transform: translate(0, 0)}
                }

                .triangle-float3 {
                    animation: float3 6s infinite;
                }
        </style>
    </defs>
</svg>